<mxfile host="app.diagrams.net" modified="2023-08-14T16:58:50.608Z" agent="Mozilla/5.0 (Windows NT 10.0; Win64; x64) AppleWebKit/537.36 (KHTML, like Gecko) Chrome/115.0.0.0 Safari/537.36 Edg/115.0.1901.203" etag="ponEl7fxy4kruEPJwuTC" version="21.6.8" type="device">
  <diagram name="Page-1" id="7JaReZNxuRJJUpMRAQ-S">
    <mxGraphModel dx="1532" dy="896" grid="1" gridSize="10" guides="1" tooltips="1" connect="1" arrows="1" fold="1" page="1" pageScale="1" pageWidth="850" pageHeight="1100" math="0" shadow="0">
      <root>
        <mxCell id="0" />
        <mxCell id="1" parent="0" />
        <mxCell id="svYx5Xs7XGlIGca2AvHk-2" value="" style="shape=link;html=1;rounded=0;" edge="1" parent="1">
          <mxGeometry width="100" relative="1" as="geometry">
            <mxPoint x="360" y="450" as="sourcePoint" />
            <mxPoint x="440" y="450" as="targetPoint" />
            <Array as="points">
              <mxPoint x="370" y="450" />
              <mxPoint x="370" y="560" />
              <mxPoint x="390" y="560" />
              <mxPoint x="390" y="450" />
              <mxPoint x="410" y="450" />
              <mxPoint x="410" y="560" />
              <mxPoint x="430" y="560" />
              <mxPoint x="430" y="470" />
              <mxPoint x="430" y="450" />
            </Array>
          </mxGeometry>
        </mxCell>
        <mxCell id="svYx5Xs7XGlIGca2AvHk-8" value="" style="shape=link;html=1;rounded=0;" edge="1" parent="1">
          <mxGeometry width="100" relative="1" as="geometry">
            <mxPoint x="760" y="450" as="sourcePoint" />
            <mxPoint x="840" y="450" as="targetPoint" />
            <Array as="points">
              <mxPoint x="770" y="450" />
              <mxPoint x="770" y="560" />
              <mxPoint x="790" y="560" />
              <mxPoint x="790" y="450" />
              <mxPoint x="810" y="450" />
              <mxPoint x="810" y="560" />
              <mxPoint x="830" y="560" />
              <mxPoint x="830" y="470" />
              <mxPoint x="830" y="450" />
            </Array>
          </mxGeometry>
        </mxCell>
        <mxCell id="svYx5Xs7XGlIGca2AvHk-9" value="" style="shape=link;html=1;rounded=0;" edge="1" parent="1">
          <mxGeometry width="100" relative="1" as="geometry">
            <mxPoint x="840" y="450" as="sourcePoint" />
            <mxPoint x="1040" y="450" as="targetPoint" />
            <Array as="points">
              <mxPoint x="850" y="450" />
              <mxPoint x="850" y="560" />
              <mxPoint x="870" y="560" />
              <mxPoint x="870" y="470" />
              <mxPoint x="870" y="450" />
              <mxPoint x="890" y="450" />
              <mxPoint x="890" y="560" />
              <mxPoint x="910" y="560" />
              <mxPoint x="910" y="470" />
              <mxPoint x="910" y="450" />
            </Array>
          </mxGeometry>
        </mxCell>
        <mxCell id="svYx5Xs7XGlIGca2AvHk-12" value="" style="endArrow=none;dashed=1;html=1;dashPattern=1 3;strokeWidth=2;rounded=0;" edge="1" parent="1">
          <mxGeometry width="50" height="50" relative="1" as="geometry">
            <mxPoint x="130" y="450" as="sourcePoint" />
            <mxPoint x="210" y="450" as="targetPoint" />
            <Array as="points">
              <mxPoint x="170" y="450" />
            </Array>
          </mxGeometry>
        </mxCell>
        <mxCell id="svYx5Xs7XGlIGca2AvHk-13" value="" style="shape=link;html=1;rounded=0;width=-5.172413793103448;" edge="1" parent="1">
          <mxGeometry width="100" relative="1" as="geometry">
            <mxPoint x="210" y="170" as="sourcePoint" />
            <mxPoint x="1040" y="170" as="targetPoint" />
            <Array as="points">
              <mxPoint x="240" y="170" />
              <mxPoint x="240" y="190" />
              <mxPoint x="240" y="280" />
              <mxPoint x="300" y="280" />
              <mxPoint x="310" y="280" />
              <mxPoint x="320" y="280" />
              <mxPoint x="970" y="280" />
              <mxPoint x="970" y="170" />
            </Array>
          </mxGeometry>
        </mxCell>
        <mxCell id="svYx5Xs7XGlIGca2AvHk-14" value="" style="endArrow=none;dashed=1;html=1;dashPattern=1 3;strokeWidth=2;rounded=0;" edge="1" parent="1">
          <mxGeometry width="50" height="50" relative="1" as="geometry">
            <mxPoint x="130" y="170" as="sourcePoint" />
            <mxPoint x="210" y="170" as="targetPoint" />
            <Array as="points">
              <mxPoint x="180" y="170" />
            </Array>
          </mxGeometry>
        </mxCell>
        <mxCell id="svYx5Xs7XGlIGca2AvHk-17" value="" style="endArrow=none;dashed=1;html=1;dashPattern=1 3;strokeWidth=2;rounded=0;" edge="1" parent="1">
          <mxGeometry width="50" height="50" relative="1" as="geometry">
            <mxPoint x="1040" y="170" as="sourcePoint" />
            <mxPoint x="1120" y="170" as="targetPoint" />
            <Array as="points">
              <mxPoint x="1080" y="170" />
            </Array>
          </mxGeometry>
        </mxCell>
        <mxCell id="svYx5Xs7XGlIGca2AvHk-18" value="" style="endArrow=none;dashed=1;html=1;dashPattern=1 3;strokeWidth=2;rounded=0;" edge="1" parent="1">
          <mxGeometry width="50" height="50" relative="1" as="geometry">
            <mxPoint x="1040" y="450" as="sourcePoint" />
            <mxPoint x="1120" y="450" as="targetPoint" />
            <Array as="points">
              <mxPoint x="1090" y="450" />
            </Array>
          </mxGeometry>
        </mxCell>
        <mxCell id="svYx5Xs7XGlIGca2AvHk-20" value="" style="shape=link;html=1;rounded=0;" edge="1" parent="1">
          <mxGeometry width="100" relative="1" as="geometry">
            <mxPoint x="210" y="450" as="sourcePoint" />
            <mxPoint x="360" y="450" as="targetPoint" />
            <Array as="points">
              <mxPoint x="290" y="450" />
              <mxPoint x="290" y="560" />
              <mxPoint x="310" y="560" />
              <mxPoint x="310" y="450" />
              <mxPoint x="330" y="450" />
              <mxPoint x="330" y="560" />
              <mxPoint x="350" y="560" />
              <mxPoint x="350" y="470" />
              <mxPoint x="350" y="450" />
            </Array>
          </mxGeometry>
        </mxCell>
        <mxCell id="svYx5Xs7XGlIGca2AvHk-21" value="" style="shape=link;html=1;rounded=0;" edge="1" parent="1">
          <mxGeometry width="100" relative="1" as="geometry">
            <mxPoint x="440" y="450" as="sourcePoint" />
            <mxPoint x="520" y="450" as="targetPoint" />
            <Array as="points">
              <mxPoint x="450" y="450" />
              <mxPoint x="450" y="560" />
              <mxPoint x="470" y="560" />
              <mxPoint x="470" y="450" />
              <mxPoint x="490" y="450" />
              <mxPoint x="490" y="560" />
              <mxPoint x="510" y="560" />
              <mxPoint x="510" y="470" />
              <mxPoint x="510" y="450" />
            </Array>
          </mxGeometry>
        </mxCell>
        <mxCell id="svYx5Xs7XGlIGca2AvHk-22" value="" style="shape=link;html=1;rounded=0;" edge="1" parent="1">
          <mxGeometry width="100" relative="1" as="geometry">
            <mxPoint x="520" y="450" as="sourcePoint" />
            <mxPoint x="600" y="450" as="targetPoint" />
            <Array as="points">
              <mxPoint x="530" y="450" />
              <mxPoint x="530" y="560" />
              <mxPoint x="550" y="560" />
              <mxPoint x="550" y="450" />
              <mxPoint x="570" y="450" />
              <mxPoint x="570" y="560" />
              <mxPoint x="590" y="560" />
              <mxPoint x="590" y="470" />
              <mxPoint x="590" y="450" />
            </Array>
          </mxGeometry>
        </mxCell>
        <mxCell id="svYx5Xs7XGlIGca2AvHk-23" value="" style="shape=link;html=1;rounded=0;" edge="1" parent="1">
          <mxGeometry width="100" relative="1" as="geometry">
            <mxPoint x="600" y="450" as="sourcePoint" />
            <mxPoint x="680" y="450" as="targetPoint" />
            <Array as="points">
              <mxPoint x="610" y="450" />
              <mxPoint x="610" y="560" />
              <mxPoint x="630" y="560" />
              <mxPoint x="630" y="450" />
              <mxPoint x="650" y="450" />
              <mxPoint x="650" y="560" />
              <mxPoint x="670" y="560" />
              <mxPoint x="670" y="470" />
              <mxPoint x="670" y="450" />
            </Array>
          </mxGeometry>
        </mxCell>
        <mxCell id="svYx5Xs7XGlIGca2AvHk-24" value="" style="shape=link;html=1;rounded=0;" edge="1" parent="1">
          <mxGeometry width="100" relative="1" as="geometry">
            <mxPoint x="680" y="450" as="sourcePoint" />
            <mxPoint x="760" y="450" as="targetPoint" />
            <Array as="points">
              <mxPoint x="690" y="450" />
              <mxPoint x="690" y="560" />
              <mxPoint x="710" y="560" />
              <mxPoint x="710" y="450" />
              <mxPoint x="730" y="450" />
              <mxPoint x="730" y="560" />
              <mxPoint x="750" y="560" />
              <mxPoint x="750" y="470" />
              <mxPoint x="750" y="450" />
            </Array>
          </mxGeometry>
        </mxCell>
        <mxCell id="svYx5Xs7XGlIGca2AvHk-25" value="" style="endArrow=none;html=1;rounded=0;fillColor=#f8cecc;strokeColor=#B80000;" edge="1" parent="1">
          <mxGeometry width="50" height="50" relative="1" as="geometry">
            <mxPoint x="970" y="600" as="sourcePoint" />
            <mxPoint x="970" y="160" as="targetPoint" />
          </mxGeometry>
        </mxCell>
        <mxCell id="svYx5Xs7XGlIGca2AvHk-26" value="" style="endArrow=none;html=1;rounded=0;fillColor=#f8cecc;strokeColor=#B80000;" edge="1" parent="1">
          <mxGeometry width="50" height="50" relative="1" as="geometry">
            <mxPoint x="910" y="600" as="sourcePoint" />
            <mxPoint x="910" y="160" as="targetPoint" />
          </mxGeometry>
        </mxCell>
        <mxCell id="svYx5Xs7XGlIGca2AvHk-27" value="" style="endArrow=none;html=1;rounded=0;fillColor=#f8cecc;strokeColor=#B80000;" edge="1" parent="1">
          <mxGeometry width="50" height="50" relative="1" as="geometry">
            <mxPoint x="290" y="600" as="sourcePoint" />
            <mxPoint x="290" y="160" as="targetPoint" />
          </mxGeometry>
        </mxCell>
        <mxCell id="svYx5Xs7XGlIGca2AvHk-28" value="" style="endArrow=none;html=1;rounded=0;fillColor=#f8cecc;strokeColor=#B80000;" edge="1" parent="1">
          <mxGeometry width="50" height="50" relative="1" as="geometry">
            <mxPoint x="240" y="600" as="sourcePoint" />
            <mxPoint x="240" y="160" as="targetPoint" />
          </mxGeometry>
        </mxCell>
        <mxCell id="svYx5Xs7XGlIGca2AvHk-29" value="" style="endArrow=classic;startArrow=classic;html=1;rounded=0;" edge="1" parent="1">
          <mxGeometry width="50" height="50" relative="1" as="geometry">
            <mxPoint x="240" y="220" as="sourcePoint" />
            <mxPoint x="1130" y="220" as="targetPoint" />
          </mxGeometry>
        </mxCell>
        <mxCell id="svYx5Xs7XGlIGca2AvHk-30" value="" style="endArrow=classic;startArrow=classic;html=1;rounded=0;" edge="1" parent="1">
          <mxGeometry width="50" height="50" relative="1" as="geometry">
            <mxPoint x="910" y="170" as="sourcePoint" />
            <mxPoint x="970" y="170" as="targetPoint" />
          </mxGeometry>
        </mxCell>
        <mxCell id="svYx5Xs7XGlIGca2AvHk-31" value="" style="endArrow=classic;startArrow=classic;html=1;rounded=0;" edge="1" parent="1">
          <mxGeometry width="50" height="50" relative="1" as="geometry">
            <mxPoint x="240" y="170" as="sourcePoint" />
            <mxPoint x="290" y="170" as="targetPoint" />
            <Array as="points">
              <mxPoint x="270" y="170" />
            </Array>
          </mxGeometry>
        </mxCell>
        <mxCell id="svYx5Xs7XGlIGca2AvHk-32" value="" style="endArrow=none;html=1;rounded=0;fillColor=#f8cecc;strokeColor=#1DB860;" edge="1" parent="1">
          <mxGeometry width="50" height="50" relative="1" as="geometry">
            <mxPoint x="600" y="600" as="sourcePoint" />
            <mxPoint x="600" y="160" as="targetPoint" />
          </mxGeometry>
        </mxCell>
        <mxCell id="svYx5Xs7XGlIGca2AvHk-33" value="TIME LAG&amp;nbsp;" style="rounded=0;whiteSpace=wrap;html=1;" vertex="1" parent="1">
          <mxGeometry x="210" y="60" width="120" height="60" as="geometry" />
        </mxCell>
        <mxCell id="svYx5Xs7XGlIGca2AvHk-34" value="" style="endArrow=none;html=1;rounded=0;entryX=0.5;entryY=1;entryDx=0;entryDy=0;" edge="1" parent="1" target="svYx5Xs7XGlIGca2AvHk-33">
          <mxGeometry width="50" height="50" relative="1" as="geometry">
            <mxPoint x="270" y="170" as="sourcePoint" />
            <mxPoint x="310" y="120" as="targetPoint" />
            <Array as="points">
              <mxPoint x="270" y="140" />
            </Array>
          </mxGeometry>
        </mxCell>
        <mxCell id="svYx5Xs7XGlIGca2AvHk-35" value="TIME LAG" style="rounded=0;whiteSpace=wrap;html=1;" vertex="1" parent="1">
          <mxGeometry x="880" y="60" width="120" height="60" as="geometry" />
        </mxCell>
        <mxCell id="svYx5Xs7XGlIGca2AvHk-36" value="" style="endArrow=none;html=1;rounded=0;entryX=0.5;entryY=1;entryDx=0;entryDy=0;" edge="1" parent="1" target="svYx5Xs7XGlIGca2AvHk-35">
          <mxGeometry width="50" height="50" relative="1" as="geometry">
            <mxPoint x="940" y="170" as="sourcePoint" />
            <mxPoint x="980" y="120" as="targetPoint" />
            <Array as="points">
              <mxPoint x="940" y="140" />
            </Array>
          </mxGeometry>
        </mxCell>
        <mxCell id="svYx5Xs7XGlIGca2AvHk-37" value="MEMORY ADDRESS INCREMENT" style="rounded=0;whiteSpace=wrap;html=1;" vertex="1" parent="1">
          <mxGeometry x="540" y="60" width="120" height="60" as="geometry" />
        </mxCell>
        <mxCell id="svYx5Xs7XGlIGca2AvHk-38" value="" style="endArrow=none;html=1;rounded=0;entryX=0.5;entryY=1;entryDx=0;entryDy=0;" edge="1" parent="1" target="svYx5Xs7XGlIGca2AvHk-37">
          <mxGeometry width="50" height="50" relative="1" as="geometry">
            <mxPoint x="600" y="170" as="sourcePoint" />
            <mxPoint x="640" y="120" as="targetPoint" />
            <Array as="points">
              <mxPoint x="600" y="140" />
            </Array>
          </mxGeometry>
        </mxCell>
        <mxCell id="svYx5Xs7XGlIGca2AvHk-39" value="" style="shape=link;html=1;rounded=0;" edge="1" parent="1">
          <mxGeometry width="100" relative="1" as="geometry">
            <mxPoint x="1110" y="170" as="sourcePoint" />
            <mxPoint x="1260" y="280" as="targetPoint" />
            <Array as="points">
              <mxPoint x="1130" y="170" />
              <mxPoint x="1130" y="280" />
            </Array>
          </mxGeometry>
        </mxCell>
        <mxCell id="svYx5Xs7XGlIGca2AvHk-42" value="" style="endArrow=none;dashed=1;html=1;dashPattern=1 3;strokeWidth=2;rounded=0;" edge="1" parent="1">
          <mxGeometry width="50" height="50" relative="1" as="geometry">
            <mxPoint x="1260" y="280" as="sourcePoint" />
            <mxPoint x="1340" y="280" as="targetPoint" />
            <Array as="points">
              <mxPoint x="1310" y="280" />
            </Array>
          </mxGeometry>
        </mxCell>
        <mxCell id="svYx5Xs7XGlIGca2AvHk-43" value="" style="shape=link;html=1;rounded=0;" edge="1" parent="1">
          <mxGeometry width="100" relative="1" as="geometry">
            <mxPoint x="1120" y="450" as="sourcePoint" />
            <mxPoint x="1260" y="450" as="targetPoint" />
            <Array as="points">
              <mxPoint x="1180" y="450" />
              <mxPoint x="1180" y="560" />
              <mxPoint x="1200" y="560" />
              <mxPoint x="1200" y="450" />
              <mxPoint x="1220" y="450" />
              <mxPoint x="1220" y="560" />
              <mxPoint x="1240" y="560" />
              <mxPoint x="1240" y="470" />
              <mxPoint x="1240" y="450" />
            </Array>
          </mxGeometry>
        </mxCell>
        <mxCell id="svYx5Xs7XGlIGca2AvHk-46" value="" style="endArrow=none;dashed=1;html=1;dashPattern=1 3;strokeWidth=2;rounded=0;" edge="1" parent="1">
          <mxGeometry width="50" height="50" relative="1" as="geometry">
            <mxPoint x="1260" y="450" as="sourcePoint" />
            <mxPoint x="1340" y="450" as="targetPoint" />
            <Array as="points">
              <mxPoint x="1310" y="450" />
            </Array>
          </mxGeometry>
        </mxCell>
        <mxCell id="svYx5Xs7XGlIGca2AvHk-47" value="16 RISING EDGES (32 [MHz])" style="rounded=0;whiteSpace=wrap;html=1;" vertex="1" parent="1">
          <mxGeometry x="425" y="370" width="120" height="60" as="geometry" />
        </mxCell>
        <mxCell id="svYx5Xs7XGlIGca2AvHk-49" value="" style="endArrow=classic;html=1;rounded=0;" edge="1" parent="1" source="svYx5Xs7XGlIGca2AvHk-47">
          <mxGeometry width="50" height="50" relative="1" as="geometry">
            <mxPoint x="590" y="340" as="sourcePoint" />
            <mxPoint x="290" y="400" as="targetPoint" />
          </mxGeometry>
        </mxCell>
        <mxCell id="svYx5Xs7XGlIGca2AvHk-50" value="" style="endArrow=classic;html=1;rounded=0;" edge="1" parent="1">
          <mxGeometry width="50" height="50" relative="1" as="geometry">
            <mxPoint x="550" y="400" as="sourcePoint" />
            <mxPoint x="910" y="400" as="targetPoint" />
          </mxGeometry>
        </mxCell>
        <mxCell id="svYx5Xs7XGlIGca2AvHk-51" value="ADC NCS" style="rounded=0;whiteSpace=wrap;html=1;" vertex="1" parent="1">
          <mxGeometry x="10" y="140" width="120" height="60" as="geometry" />
        </mxCell>
        <mxCell id="svYx5Xs7XGlIGca2AvHk-52" value="ADC CLOCK &amp;amp; FRAMs CLOCK" style="rounded=0;whiteSpace=wrap;html=1;" vertex="1" parent="1">
          <mxGeometry x="10" y="420" width="120" height="60" as="geometry" />
        </mxCell>
        <mxCell id="svYx5Xs7XGlIGca2AvHk-53" value="CLOCK 1 [MHz]" style="rounded=0;whiteSpace=wrap;html=1;" vertex="1" parent="1">
          <mxGeometry x="380" y="110" width="120" height="60" as="geometry" />
        </mxCell>
        <mxCell id="svYx5Xs7XGlIGca2AvHk-54" value="" style="endArrow=none;html=1;rounded=0;entryX=0.5;entryY=1;entryDx=0;entryDy=0;" edge="1" parent="1" target="svYx5Xs7XGlIGca2AvHk-53">
          <mxGeometry width="50" height="50" relative="1" as="geometry">
            <mxPoint x="440" y="220" as="sourcePoint" />
            <mxPoint x="480" y="170" as="targetPoint" />
            <Array as="points">
              <mxPoint x="440" y="190" />
            </Array>
          </mxGeometry>
        </mxCell>
      </root>
    </mxGraphModel>
  </diagram>
</mxfile>
